<svg width="21" height="16" viewBox="0 0 21 16" fill="none" xmlns="http://www.w3.org/2000/svg">
<path d="M16.7348 0.498963L15.4548 1.49896L10.0048 5.54896L4.55483 1.45896L3.27483 0.458963C2.97329 0.209508 2.60518 0.0540028 2.21612 0.0117128C1.82706 -0.0305771 1.43414 0.0422066 1.08604 0.221047C0.737943 0.399887 0.449961 0.676924 0.257775 1.01784C0.0655881 1.35875 -0.0223571 1.74856 0.00483439 2.13896V13.729C0.00483439 14.0897 0.14812 14.4356 0.403169 14.6906C0.658219 14.9457 1.00414 15.089 1.36483 15.089H4.55483V7.36896L10.0048 11.459L15.4548 7.36896V15.089H18.6448C19.0055 15.089 19.3515 14.9457 19.6065 14.6906C19.8615 14.4356 20.0048 14.0897 20.0048 13.729V2.13896C20.0236 1.75192 19.9296 1.36777 19.7341 1.03319C19.5386 0.698604 19.2502 0.428009 18.9038 0.254293C18.5574 0.0805774 18.168 0.0112221 17.783 0.0546577C17.3979 0.0980934 17.0338 0.252449 16.7348 0.498963Z" fill="#6A4BD9"/>
</svg>
