<svg width="19" height="20" viewBox="0 0 19 20" fill="none" xmlns="http://www.w3.org/2000/svg">
<path d="M16.5523 13.9203C15.3441 12.8869 14.1179 12.261 12.9246 13.2928L12.212 13.9164C11.6906 14.3691 10.7212 16.4842 6.97326 12.1728C3.22609 7.86676 5.45597 7.19631 5.97812 6.74752L6.69462 6.12312C7.88176 5.08896 7.43375 3.78709 6.57755 2.44698L6.06086 1.63526C5.20075 0.298264 4.26415 -0.579797 3.07389 0.452803L2.43076 1.01476C1.9047 1.39799 0.434244 2.64366 0.0775561 5.01013C-0.351718 7.84958 1.00245 11.1011 4.10493 14.6688C7.2035 18.238 10.2373 20.0308 13.1111 19.9996C15.4994 19.9738 16.9418 18.6923 17.3929 18.2263L18.0384 17.6636C19.2255 16.6318 18.4879 15.5812 17.279 14.5455L16.5523 13.9203Z" fill="#6A4BD9"/>
</svg>
